#!OML:ASF E:/inclinewalkrobotboard/Project1/Captureday1/Session1/subject1.ASF
:FULLY-SPECIFIED
:DEGREES
274
root 0 0 0 -2.310264206865036 -3.9319397891633705 0.4706434701328069
lowerback 7.339387173590572 1.5559700689683167 -2.4656158385221354
upperback 1.7740535725918574 1.9380671422360232 -0.04655554576394161
thorax -2.301932576111221 1.0177995342392192 1.2314422719984273
lowerneck -9.320235118534098 -5.4554336582508345 -6.307234866386826
upperneck 31.292342158137274 -8.596051130744604 5.8092451752120375
head 11.681034516483473 -3.9173241515475987 1.9137218378400216
rclavicle -3.089981951995031E-15 1.515867447192662E-15
rhumerus -9.21176246736913 3.2288679199799644 -79.7059538727776
rradius 50.96235186897093
rwrist -21.33182483890949
rhand -41.829567634360004 15.28777013525657
rfingers 7.125019999999947
rthumb -14.695382633870702 -14.137765254958913
lclavicle -6.636671099914354E-15 8.522094277598307E-16
lhumerus -30.424323642178045 11.197451832825722 78.14168820619018
lradius 24.950334827676347
lwrist -4.583903619389401
lhand -23.765511778495032 22.09147167124781
lfingers 7.1250199999999495
lthumb 2.703171714680399 52.024130910120135
rfemur -4.62856246139288 8.125635868570352 33.853488641559565
rtibia 29.814692764616893
rfoot -18.510349263748147 -9.284234517469969
rtoes 6.173991732082708
lfemur -26.845742469359383 3.8635156549081753 -13.342626584344702
ltibia 60.30112527193685
lfoot -4.817988971382716 -4.912406390505533
ltoes -7.658881447845331
275
root 0 0 0 -2.2547825097443335 -3.8803895616067328 0.4854351629825255
lowerback 7.378659936292495 1.5757714901917705 -2.481239580240765
upperback 1.8339902429456516 1.9611229904735694 -0.059104745664877445
thorax -2.261091942450247 1.031110352671289 1.2234197848006971
lowerneck -9.212844869508801 -5.48065582906657 -6.367479851502997
upperneck 31.154007011516743 -8.622434149896806 5.919336701321312
head 11.634253821993383 -3.932149670097785 1.9557007429766298
rclavicle -3.2472992419274214E-15 1.6874191763441206E-15
rhumerus -9.684324532027876 3.7970335999418676 -79.82678437297625
rradius 51.58113640583763
rwrist -21.458002567899584
rhand -41.82572654421778 15.15878801220802
rfingers 7.1250199999999495
rthumb -14.695339465685194 -14.270006849445313
lclavicle -6.811105929823987E-15 1.1499888677762218E-15
lhumerus -30.553563882118677 11.300257567837495 77.92431037582264
lradius 24.89974934805393
lwrist -4.657349721141893
lhand -23.84427041689565 22.072484859669057
lfingers 7.125019999999951
lthumb 2.6274216352528996 52.00563375036918
rfemur -0.8598243051516508 8.300599851675997 34.31613841674451
rtibia 27.79265715022268
rfoot -20.06435296854767 -9.19317217552785
rtoes 5.467611618867188
lfemur -28.31762781816913 3.458677018496079 -13.078426400475784
ltibia 57.086452941739736
lfoot -5.2739715889830565 -4.165090234856498
ltoes -7.560396060114952
276
root 0 0 0 -2.2009132777186653 -3.829205788004413 0.4995605187683709
lowerback 7.419877177530545 1.5949057841691063 -2.498339030044496
upperback 1.8901173357437484 1.9830922936186708 -0.07127122746835646
thorax -2.22551597363954 1.04374999925491 1.2163709074712976
lowerneck -9.117408527441604 -5.506335557121938 -6.427246908219742
upperneck 31.027966025218504 -8.649245758181117 6.0266717709741755
head 11.592501008019608 -3.946855364161855 1.9966606805416003
rclavicle -3.2128983234547348E-15 1.7770925183510805E-15
rhumerus -10.015021359764638 4.178948686789556 -79.91851617952874
rradius 51.94280855401137
rwrist -21.526916320027116
rhand -41.83025261244161 15.115561248971114
rfingers 7.125019999999951
rthumb -14.701879076200715 -14.315424754784491
lclavicle -6.8348366126540344E-15 1.3393684106815873E-15
lhumerus -30.683469140999573 11.428806738592845 77.69384622601724
lradius 24.85015956517454
lwrist -4.730434252229351
lhand -23.945737073565965 22.03760462021138
lfingers 7.125019999999952
lthumb 2.529927799004923 51.971708538114
rfemur 1.2286125316547039 8.402417491976147 34.55132461621576
rtibia 26.722179106542278
rfoot -20.84868697371342 -9.161756077054408
rtoes 4.946178750904053
lfemur -29.884222941148664 2.890291250943699 -12.865831070681342
ltibia 52.794529826155674
lfoot -5.614507498601201 -3.4789124444570323
ltoes -7.274230689481035
277
root 0 0 0 -2.1583614517257885 -3.7859607149262544 0.5098547958294979
lowerback 7.4567321987087185 1.609834120438229 -2.5130524738909314
upperback 1.9307547826856308 2.0000502801560214 -0.08037154890520615
thorax -2.2039961317148937 1.0533767331135953 1.2116552649095969
lowerneck -9.057040875280464 -5.527304352407893 -6.473821882859145
upperneck 30.93687164038994 -8.670381823007272 6.11021752452797
head 11.563807930751627 -3.9581166872432485 2.0287573777707806
rclavicle -3.004915041528827E-15 1.781005612317018E-15
rhumerus -10.173740104095312 4.336283310561564 -79.97158123667053
rradius 52.007755298430276
rwrist -21.53641094526083
rhand -41.83826400176519 15.157634238217371
rfingers 7.125019999999952
rthumb -14.709669578970413 -14.274471030619608
lclavicle -6.728881323194247E-15 1.41173746911948E-15
lhumerus -30.802182120761504 11.566937117402453 77.47360435217652
lradius 24.80769284197459
lwrist -4.793133336612465
lhand -24.060384869596632 21.992369328987543
lfingers 7.125019999999954
lthumb 2.419867343768522 51.92778000818518
rfemur 2.2320361104466744 8.455220735623943 34.63841132185865
rtibia 26.29211245347787
rfoot -21.12910044778625 -9.157412083154735
rtoes 4.517072275945393
lfemur -31.12637662001736 2.2727151586208905 -12.7575163972601
ltibia 48.310084885203246
lfoot -5.7470009361799566 -3.0704269995659192
ltoes -6.843320172590549
278
root 0 0 0 -2.129982614722978 -3.7542397964857575 0.5149214074656963
lowerback 7.489849031167495 1.6185421232129729 -2.523572883610601
upperback 1.9507917582542698 2.0096452194149106 -0.08482603377982745
thorax -2.2025166223907386 1.0586329941365087 1.2104261987681526
lowerneck -9.04336670105394 -5.541002502122345 -6.5001523334605
upperneck 30.885844586267932 -8.682108440533765 6.161893231037895
head 11.549945606920659 -3.9640706613843326 2.0492522997651506
rclavicle -2.698040626019919E-15 1.7398199320966498E-15
rhumerus -10.162055288248379 4.270910567302827 -79.98823023008502
rradius 51.80214362663255
rwrist -21.485869663990837
rhand -41.857170441069634 15.270972626734919
rfingers 7.125019999999952
rthumb -14.725860887747945 -14.160605019308786
lclavicle -6.553921234509166E-15 1.4130913287848696E-15
lhumerus -30.901316935298585 11.698569969918047 77.28183321810404
lradius 24.77359592153049
lwrist -4.843336752062034
lhand -24.172514207033046 21.944737679813997
lfingers 7.125019999999955
lthumb 2.3122885521263385 51.88161121727962
rfemur 2.6836404898701436 8.476183431706314 34.662533201269866
rtibia 26.255396505117176
rfoot -21.119343213494297 -9.135825522704415
rtoes 4.108529479055519
lfemur -31.868900400572578 1.7112060520285208 -12.783769383531167
ltibia 44.3749128159819
lfoot -5.615275815469694 -3.026800058220852
ltoes -6.293464502785426
